PathFileType	4	(X/Y/Z)	Patient5_TMGait_0pt45_1_right_03.trc.trc
DataRate	CameraRate	NumFrames	NumMarkers	Units	OrigDataRate	OrigDataStartFrame	OrigNumFrames
60.085836909871	60.085836909871	4	32	mm	60.085836909871	106	       141
Frame#	Time	R.ASIS			L.ASIS			Chest			R.Shoulder			Neck			L.Shoulder			L.Elbow			L.Wrist			R.Elbow			R.Wrist			L.Thigh.Superior			L.Thigh.Lateral			L.Thigh.Inferior			L.Patella			L.Shank.Superior			L.Shank.Lateral			L.Shank.Inferior			L.Heel			L.Midfoot.Lateral			L.Midfoot.Superior			L.Toe			R.Thigh.Superior			R.Thigh.Lateral			R.Thigh.Inferior			R.Patella			R.Shank.Superior			R.Shank.Lateral			R.Shank.Inferior			R.Heel			R.Midfoot.Lateral			R.Midfoot.Superior			R.Toe			
		X1	Y1	Z1	X2	Y2	Z2	X3	Y3	Z3	X4	Y4	Z4	X5	Y5	Z5	X6	Y6	Z6	X7	Y7	Z7	X8	Y8	Z8	X9	Y9	Z9	X10	Y10	Z10	X11	Y11	Z11	X12	Y12	Z12	X13	Y13	Z13	X14	Y14	Z14	X15	Y15	Z15	X16	Y16	Z16	X17	Y17	Z17	X18	Y18	Z18	X19	Y19	Z19	X20	Y20	Z20	X21	Y21	Z21	X22	Y22	Z22	X23	Y23	Z23	X24	Y24	Z24	X25	Y25	Z25	X26	Y26	Z26	X27	Y27	Z27	X28	Y28	Z28	X29	Y29	Z29	X30	Y30	Z30	X31	Y31	Z31	X32	Y32	Z32	

106	6.217500000000	923.485102148617	1021.572348649576	540.150622000564	942.051229382258	964.987142832383	291.871482277373	979.358386952969	1452.642566176591	407.357742532079	845.482257805391	1518.816929009593	547.685826172300	858.354767700813	1569.904693445966	360.537655590020	961.836694506722	1510.710167397193	203.331289427457	983.615741123619	1175.980513287728	92.197757047787	1164.382692807606	958.299577794069	133.633765953592	739.579041090948	1197.950929778522	670.695777856534	958.816777606510	1008.450945421289	651.991915125093	948.682920982024	741.104194010620	302.074416852454	869.234252535623	675.091220769031	261.881629648799	930.309012120641	613.022849655384	329.835215563383	919.498929539678	499.822670400285	338.755141514603	868.284737159266	398.088313785228	360.321153288267	799.741984640671	330.563084669260	286.119964504420	831.928468433293	278.430841907202	375.487559912011	691.495487089676	50.091857958435	385.930870885849	777.364001113166	27.836980155162	321.079305797600	875.618070893563	88.012619027605	362.548302674724	983.820047545952	45.609344203588	361.922847120225	989.528762370144	818.133762280908	590.562126248542	928.855445541997	731.572344665376	653.628447539299	1031.553992011994	697.353804635053	599.120692059196	1060.215640670667	606.630567461907	650.490604381705	1039.008460982770	494.738196735392	620.643529388779	960.075822978760	423.353719502095	692.249145179782	1039.280162500540	355.147196967098	631.509557099379	955.531321268627	118.085498213444	600.228702324884	1021.070460258810	92.218524730270	687.072017709500	1119.685526966859	170.273974855218	691.491177446137	1225.397690963950	138.528460358559	709.984382962787	
107	6.234142857143	923.270897296234	1021.026292269909	539.938312595620	940.338672672417	964.778454365759	291.483569775270	976.325492897961	1452.341334153528	407.490843841768	842.741962389310	1518.148734896914	548.517950834126	854.813575944574	1569.222031234569	361.371322041843	957.710063520188	1510.162196556845	203.545057835620	979.451719853744	1174.935898201815	93.632875718542	1159.240880774988	956.546014843626	135.987034849738	737.697474292601	1197.139044862633	671.825294355368	958.090084035524	1008.947726941714	653.730369031512	945.880673579428	740.364885175192	302.620627303440	865.481967074406	674.753716692973	262.141966986586	925.406640481747	612.239591171987	330.356606284606	913.382977556621	499.345232436098	339.039321561801	861.733922499198	397.932625280056	360.507972060026	792.927279963614	330.684296608150	286.352654258819	825.018700648771	278.377634245530	375.701789125313	683.971398379044	50.199601791706	386.006496199371	769.788019686827	27.900204250413	321.192601238902	868.048350247192	88.158267350626	362.459444930415	976.274897522592	45.520835733491	361.908658715590	993.013390862562	819.267044153381	588.466850044225	935.128803752529	731.985494197107	653.230347773903	1037.213779968307	699.118778041957	596.790841704314	1068.015136949335	608.623471083496	647.854956311201	1045.899186486841	495.850598186305	618.244265634760	968.511897251227	424.461881918965	691.522808755358	1045.842146067151	356.142649416889	628.541930381341	960.015026372854	119.694407491480	598.619663134404	1027.818311225101	93.103764974347	683.679736628460	1126.789035830554	170.881207600796	685.729382633424	1232.819592840502	138.720157907698	701.368240395372	
108	6.250785714286	923.143796012420	1020.294058880578	539.414802227755	938.753346085228	964.615996666688	291.171620782131	973.441468755235	1452.103681492742	407.688936654588	840.259588250780	1517.450746844360	549.584540029576	851.341483020795	1568.576536146453	362.443520220899	953.510381544024	1509.725686980581	203.835467171687	974.867732679257	1174.016457622026	94.996950219594	1153.515616402545	954.767839524604	138.237465265949	736.027044053203	1196.328394429773	673.146393009802	957.420145644517	1009.268236120881	655.604827203022	943.282248519136	739.741931804362	303.022381425905	861.815185015629	674.447262595718	262.375817192317	920.867262516146	611.535967606136	330.564068146589	907.552372768399	498.839444938311	339.027864170934	855.415808044240	397.827506780102	360.509437356468	786.110146169727	330.941128808208	286.511028080106	818.295445129684	278.381079861117	375.772014473828	676.466602184181	50.354330214487	386.037457435198	762.220572600611	27.956474513378	321.288640976105	860.512258754496	88.309394502752	362.318391884560	968.716719208238	45.441595178993	361.898412834729	996.011143273449	819.840405913407	586.340253044497	940.691198186197	732.000500728325	652.583796704303	1042.005712767270	700.197764270576	594.240689552810	1074.664715727423	609.901350373656	644.906044421976	1051.657873919518	496.366241218935	615.484312407329	975.747452410751	424.996801150969	690.332550159394	1051.242927035229	356.557497000719	625.280810619807	963.438660668905	120.712103757774	596.680236218819	1033.379185742054	93.384026081572	679.897214085393	1132.664390603278	170.855053532775	679.731430906172	1238.946531795976	138.309166568493	692.636096544612	
109	6.267428571429	923.115118190617	1019.397955182031	538.685234741148	937.267492121711	964.480965050737	290.954156960954	970.739498315475	1451.902550762298	407.984695811610	838.084259785641	1516.710990512279	550.908412722714	847.975342622700	1567.954842813944	363.775712184832	949.290274522357	1509.381738777761	204.237430547087	969.851523510694	1173.218360065509	96.262597817471	1147.250840542115	953.001860953066	140.311704910580	734.631244941102	1195.518585465522	674.715618411105	956.835267240275	1009.380978626944	657.532368690224	940.886815540418	739.219963061645	303.317131827431	858.286585315166	674.155822877824	262.608603374682	916.750957993122	610.897277417457	330.514185408664	902.084202746814	498.281797300334	338.788568245380	849.400380614802	397.738031781832	360.381976839555	779.387700182404	331.309387014325	286.614291058432	811.795546397709	278.421170524064	375.734523855590	668.980328481680	50.542922924407	386.037973618651	754.665911005680	28.010668133061	321.370557436772	853.008299247737	88.438973959799	362.156293287093	961.148451366417	45.365319417345	361.896226909991	998.481644118832	819.802901461387	584.341394730424	945.417393950698	731.521943946296	651.688961340223	1045.850126246875	700.496804406991	591.506750893650	1080.039218135226	610.341865098751	641.664994956989	1056.238841851253	496.222037835302	612.387350760284	981.719480337562	424.845224292822	688.645033190199	1055.515499615013	356.331634932597	621.747482506373	966.049618425626	121.021984659933	594.335671041901	1037.886840458622	93.021608654095	675.786293928279	1137.406679756687	170.210004209853	673.655260149113	1243.874961980344	137.356965291589	684.091189852081	
